HIERARCHY
ROOT Hips
{
	OFFSET 0.000000 0.000000 0.000000 
	CHANNELS 6 Xposition Yposition Zposition Zrotation Yrotation Xrotation
	JOINT LeftUpLeg
	{
		OFFSET 1.363060 -1.794630 0.839290 
		CHANNELS 3 Zrotation Yrotation Xrotation
		JOINT LeftLeg
		{
			OFFSET 2.448110 -6.726130 0.000000 
			CHANNELS 3 Zrotation Yrotation Xrotation
			JOINT LeftFoot
			{
				OFFSET 2.562200 -7.039590 0.000000 
				CHANNELS 3 Zrotation Yrotation Xrotation
				JOINT LeftToeBase
				{
					OFFSET 0.157640 -0.433110 2.322550 
					CHANNELS 3 Zrotation Yrotation Xrotation
					End Site
					{
						OFFSET 0.000000 0.000000 0.000000 
					}
				}
			}
		}
	}
	JOINT RightUpLeg
	{
		OFFSET -1.305520 -1.794630 0.839290 
		CHANNELS 3 Zrotation Yrotation Xrotation
		JOINT RightLeg
		{
			OFFSET -2.542530 -6.985550 0.000000 
			CHANNELS 3 Zrotation Yrotation Xrotation
			JOINT RightFoot
			{
				OFFSET -2.568260 -7.056230 0.000000 
				CHANNELS 3 Zrotation Yrotation Xrotation
				JOINT RightToeBase
				{
					OFFSET -0.164730 -0.452590 2.363150 
					CHANNELS 3 Zrotation Yrotation Xrotation
					End Site
					{
						OFFSET 0.000000 0.000000 0.000000 
					}
				}
			}
		}
	}
	JOINT Spine
	{
		OFFSET 0.028270 2.035590 -0.193380 
		CHANNELS 3 Zrotation Yrotation Xrotation
		JOINT Spine1
		{
			OFFSET 0.056720 2.048850 -0.042750 
			CHANNELS 3 Zrotation Yrotation Xrotation
			JOINT Neck1
			{
				OFFSET -0.054170 1.746240 0.172020 
				CHANNELS 3 Zrotation Yrotation Xrotation
				JOINT Head
				{
					OFFSET 0.104070 1.761360 -0.123970 
					CHANNELS 3 Zrotation Yrotation Xrotation
					End Site
					{
						OFFSET 0.000000 0.000000 0.000000 
					}
				}
			}
			JOINT LeftArm
			{
				OFFSET 3.362410 1.200890 -0.311210 
				CHANNELS 3 Zrotation Yrotation Xrotation
				JOINT LeftForeArm
				{
					OFFSET 4.983000 -0.000000 -0.000000 
					CHANNELS 3 Zrotation Yrotation Xrotation
					JOINT LeftHand
					{
						OFFSET 3.483560 -0.000000 -0.000000 
						CHANNELS 3 Zrotation Yrotation Xrotation
						JOINT LeftHandIndex1
						{
							OFFSET 0.715260 -0.000000 -0.000000 
							CHANNELS 3 Zrotation Yrotation Xrotation
							End Site
							{
								OFFSET 0.000000 0.000000 0.000000 
							}
						}
					}
				}
			}
			JOINT RightArm
			{
				OFFSET -3.136600 1.374050 -0.404650 
				CHANNELS 3 Zrotation Yrotation Xrotation
				JOINT RightForeArm
				{
					OFFSET -5.241900 -0.000000 -0.000000 
					CHANNELS 3 Zrotation Yrotation Xrotation
					JOINT RightHand
					{
						OFFSET -3.444170 -0.000000 -0.000000 
						CHANNELS 3 Zrotation Yrotation Xrotation
						JOINT RightHandIndex1
						{
							OFFSET -0.622530 -0.000000 -0.000000 
							CHANNELS 3 Zrotation Yrotation Xrotation
							End Site
							{
								OFFSET 0.000000 0.000000 0.000000 
							}
						}
					}
				}
			}
		}
	}
}
MOTION
Frames: 10
Frame Time: 0.041667
-0.959933 18.173557 5.682041 -2.724389 -3.443377 1.082206 -11.467577 -7.322148 11.871873 -2.004494 -5.151419 -11.159703 -6.835296 25.399034 -3.417840 0.203400 -2.903800 -8.011100 17.976889 4.340698 5.030708 1.286524 0.514298 1.833462 1.160173 -6.763926 -8.716241 -0.129900 -2.323500 6.400700 -0.039570 1.313353 17.355178 -2.582523 1.163674 -9.561754 7.265358 -4.366221 22.915599 1.366900 -1.315300 8.573600 -94.656541 7.049428 19.054072 23.186655 -32.686024 -6.719106 0.760657 0.370324 14.325910 -7.125000 0.000000 0.000000 96.423057 -10.279389 17.767146 -29.137550 37.503327 -8.252308 1.053143 -2.582011 23.633077 7.125000 0.000000 0.000000 
-0.960232 18.173557 5.683141 -2.712123 -3.448576 1.084968 -11.477589 -7.293912 11.861062 -2.004376 -5.149717 -11.149556 -6.823787 25.357827 -3.424855 0.201900 -2.893200 -7.981500 17.963632 4.345557 5.036161 1.286351 0.514062 1.833786 1.155280 -6.746262 -8.725139 -0.130700 -2.330500 6.420000 -0.025424 1.327187 17.387082 -2.557981 1.175800 -9.558782 7.242596 -4.405606 22.923379 1.356400 -1.335000 8.581500 -94.687557 7.029062 19.028038 23.152445 -32.652311 -6.703932 0.761409 0.367765 14.365574 -7.125000 0.000000 0.000000 96.429259 -10.282886 17.775014 -29.175348 37.547857 -8.280113 1.056103 -2.584498 23.585690 7.125000 0.000000 0.000000 
-0.960532 18.173557 5.683840 -2.703588 -3.443653 1.089126 -11.478972 -7.262831 11.840610 -2.003622 -5.148022 -11.142015 -6.811998 25.318727 -3.408945 0.198100 -2.865700 -7.905200 17.956034 4.341635 5.034246 1.286162 0.514063 1.834400 1.149160 -6.724677 -8.739024 -0.136400 -2.380600 6.558700 -0.032454 1.337327 17.396484 -2.565525 1.181955 -9.543487 7.543472 -4.474249 22.709471 1.442700 -1.353700 8.522200 -94.707089 7.027681 19.014270 23.130761 -32.634451 -6.694625 0.761749 0.366734 14.407279 -7.125000 0.000000 0.000000 96.444259 -10.280354 17.767848 -29.197121 37.569509 -8.292543 1.061573 -2.584554 23.546755 7.125000 0.000000 0.000000 
-0.960732 18.173058 5.685039 -2.698091 -3.429798 1.090575 -11.479309 -7.261722 11.832870 -2.003673 -5.149718 -11.142179 -6.807804 25.301602 -3.416351 0.189100 -2.800700 -7.724500 17.951152 4.330905 5.027120 1.285935 0.514490 1.834927 1.146613 -6.714579 -8.743492 -0.139100 -2.403600 6.622600 -0.005224 1.320505 17.459312 -2.591810 1.176497 -9.488339 8.223286 -4.552302 22.167379 1.643400 -1.362700 8.371400 -94.632453 6.947957 19.251464 22.916199 -32.419583 -6.598084 0.764729 0.369850 14.169422 -7.125000 0.000000 0.000000 96.443930 -10.240203 17.783593 -29.191775 37.562942 -8.288794 1.064323 -2.583986 23.543884 7.125000 0.000000 0.000000 
-0.960832 18.172558 5.686539 -2.684764 -3.426511 1.120245 -11.477250 -7.233686 11.828920 -2.000983 -5.148442 -11.149688 -6.802906 25.295206 -3.397468 0.188100 -2.792900 -7.702600 17.965004 4.320294 5.033857 1.285970 0.512941 1.834898 1.144306 -6.709182 -8.750326 -0.139700 -2.408600 6.636300 -0.195908 1.359121 17.128789 -2.608320 1.179245 -9.550241 8.392819 -4.611501 22.217895 1.682800 -1.374800 8.360500 -94.423357 6.682141 19.521981 21.944343 -31.398341 -6.167702 0.778877 0.357645 13.937039 -7.125000 0.000000 0.000000 96.536520 -10.357494 17.686880 -29.184733 37.542505 -8.279910 1.058900 -2.584007 23.587009 7.125000 0.000000 0.000000 
-0.960932 18.172358 5.688238 -2.645858 -3.433529 1.191174 -11.479099 -7.160191 11.810835 -1.994210 -5.143126 -11.165793 -6.794117 25.293879 -3.331500 0.198600 -2.869500 -7.915600 17.988690 4.310155 5.048658 1.286299 0.508971 1.834643 1.137438 -6.691701 -8.769850 -0.144300 -2.447800 6.744800 -0.725845 1.476099 16.317164 -2.605336 1.197092 -9.731219 7.995844 -4.653272 22.890144 1.541000 -1.391600 8.490000 -94.134248 6.228651 19.538390 20.391859 -29.707382 -5.510993 0.801052 0.321289 14.035606 -7.125000 0.000000 0.000000 96.749998 -10.678378 17.459679 -29.208272 37.532302 -8.277122 1.050827 -2.583017 23.658206 7.125000 0.000000 0.000000 
-0.960632 18.171658 5.689737 -2.604615 -3.437182 1.240707 -11.500862 -7.176410 11.817166 -1.992308 -5.141412 -11.180404 -6.802440 25.333978 -3.335597 0.208600 -2.940800 -8.114000 17.983691 4.309535 5.043970 1.286550 0.506275 1.834229 1.134217 -6.682737 -8.774384 -0.148000 -2.478800 6.830900 -1.066345 1.542099 15.860904 -2.587703 1.209875 -9.811384 7.817560 -4.675335 23.205183 1.472400 -1.398900 8.545000 -93.758420 5.655106 20.065421 19.103678 -28.259065 -4.993116 0.818482 0.298202 13.623986 -7.125000 0.000000 0.000000 96.865469 -10.863639 17.360707 -29.241224 37.545487 -8.288828 1.048678 -2.583388 23.678274 7.125000 0.000000 0.000000 
-0.960432 18.171259 5.691636 -2.603999 -3.443029 1.253630 -11.499094 -7.187639 11.822137 -1.991536 -5.143821 -11.189495 -6.801135 25.332442 -3.332850 0.218500 -3.009100 -8.304100 17.986272 4.316235 5.036101 1.286498 0.506338 1.833576 1.135055 -6.680790 -8.748468 -0.149300 -2.489800 6.861300 -1.109463 1.548704 15.821827 -2.594213 1.208115 -9.804737 7.850802 -4.686487 23.205303 1.478200 -1.400100 8.541300 -94.043021 6.482336 19.593464 20.421977 -29.725164 -5.520941 0.802009 0.318883 14.040270 -7.125000 0.000000 0.000000 96.876533 -10.881458 17.377264 -29.255573 37.565473 -8.303830 1.048213 -2.585551 23.664187 7.125000 0.000000 0.000000 
-0.960232 18.171958 5.693534 -2.611146 -3.443345 1.270336 -11.489661 -7.145211 11.810902 -1.988405 -5.149725 -11.204186 -6.784124 25.282976 -3.292371 0.219700 -3.017500 -8.327600 17.990804 4.318626 5.033500 1.286266 0.505431 1.833119 1.132010 -6.667699 -8.737735 -0.151600 -2.508800 6.914000 -1.084666 1.558827 15.734942 -2.610900 1.214575 -9.816012 7.863951 -4.680508 23.229108 1.481600 -1.395500 8.541800 -93.051088 5.537854 22.487948 18.823592 -27.918364 -4.871356 0.820120 0.343427 11.287567 -7.125000 0.000000 0.000000 96.890438 -10.914119 17.367795 -29.259228 37.560351 -8.306507 1.047234 -2.586166 23.670032 7.125000 0.000000 0.000000 
-0.959933 18.172158 5.695533 -2.628936 -3.438952 1.298319 -11.477908 -7.159828 11.808748 -1.987893 -5.152015 -11.211660 -6.783662 25.278441 -3.327623 0.211000 -2.957600 -8.160800 18.005140 4.315179 5.029141 1.286449 0.504220 1.832897 1.130402 -6.667167 -8.758178 -0.149900 -2.494600 6.874600 -1.028377 1.556028 15.610641 -2.617239 1.213761 -9.815076 7.838581 -4.670296 23.256592 1.476900 -1.393000 8.536500 -93.084870 5.566164 22.392029 18.786216 -27.872646 -4.857476 0.820612 0.341177 11.362640 -7.125000 0.000000 0.000000 96.890149 -10.963603 17.348241 -29.267277 37.555825 -8.304006 1.047753 -2.584207 23.679044 7.125000 0.000000 0.000000 
